<svg width="25" height="25" viewBox="0 0 25 25" fill="none" xmlns="http://www.w3.org/2000/svg">
<g clip-path="url(#clip0_191_722)">
<path d="M17.991 12.494C17.991 12.2288 17.8856 11.9745 17.6981 11.787C17.5106 11.5995 17.2563 11.4941 16.9911 11.4941H13.334L13.334 7.83695C13.3294 7.57479 13.2221 7.3249 13.0351 7.14111C12.8481 6.95732 12.5964 6.85433 12.3341 6.85433C12.0719 6.85433 11.8202 6.95732 11.6332 7.14111C11.4462 7.3249 11.3389 7.57479 11.3343 7.83695L11.3343 11.4941L7.67714 11.4941C7.41497 11.4987 7.16508 11.606 6.98129 11.793C6.7975 11.98 6.69452 12.2318 6.69452 12.494C6.69452 12.7562 6.7975 13.0079 6.98129 13.1949C7.16508 13.3819 7.41497 13.4893 7.67714 13.4938L11.3343 13.4938V17.151C11.3389 17.4131 11.4462 17.663 11.6332 17.8468C11.8202 18.0306 12.0719 18.1336 12.3341 18.1336C12.5964 18.1336 12.8481 18.0306 13.0351 17.8468C13.2221 17.663 13.3294 17.4131 13.334 17.151L13.334 13.4938L16.9911 13.4938C17.2563 13.4938 17.5106 13.3884 17.6981 13.2009C17.8856 13.0134 17.991 12.7591 17.991 12.494Z" fill="#219942"/>
<path d="M12.3366 0.5C9.96327 0.5 7.64319 1.20379 5.6698 2.52236C3.69641 3.84094 2.15834 5.71509 1.25009 7.9078C0.341839 10.1005 0.104199 12.5133 0.567221 14.8411C1.03024 17.1689 2.17313 19.3071 3.85136 20.9853C5.52959 22.6635 7.66779 23.8064 9.99556 24.2694C12.3233 24.7324 14.7361 24.4948 16.9288 23.5866C19.1216 22.6783 20.9957 21.1402 22.3143 19.1668C23.6329 17.1935 24.3366 14.8734 24.3366 12.5C24.3332 9.31846 23.0678 6.26821 20.8181 4.01852C18.5684 1.76883 15.5182 0.503441 12.3366 0.5ZM12.3366 22.5C10.3588 22.5 8.42543 21.9135 6.78094 20.8147C5.13645 19.7159 3.85473 18.1541 3.09785 16.3268C2.34097 14.4996 2.14294 12.4889 2.52879 10.5491C2.91464 8.60929 3.86705 6.82746 5.26558 5.42893C6.6641 4.03041 8.44593 3.078 10.3857 2.69215C12.3256 2.3063 14.3362 2.50433 16.1635 3.2612C17.9907 4.01808 19.5525 5.29981 20.6513 6.9443C21.7502 8.58879 22.3366 10.5222 22.3366 12.5C22.3337 15.1513 21.2792 17.6931 19.4045 19.5679C17.5298 21.4426 14.9879 22.4971 12.3366 22.5Z" fill="#219942"/>
</g>
<defs>
<clipPath id="clip0_191_722">
<rect width="24" height="24" fill="white" transform="translate(0.336639 0.5)"/>
</clipPath>
</defs>
</svg>
