<svg width="14" height="12" viewBox="0 0 14 12" fill="none" xmlns="http://www.w3.org/2000/svg">
<path d="M-0.00012207 6C0.00474453 5.4739 0.216722 4.9709 0.589878 4.6L4.87988 0.300009C5.06724 0.113758 5.32069 0.00921631 5.58488 0.00921631C5.84906 0.00921631 6.10252 0.113758 6.28988 0.300009C6.38361 0.392972 6.458 0.503573 6.50877 0.625432C6.55954 0.747291 6.58568 0.877996 6.58568 1.01001C6.58568 1.14202 6.55954 1.27272 6.50877 1.39458C6.458 1.51644 6.38361 1.62704 6.28988 1.72001L2.99988 5H12.9999C13.2651 5 13.5194 5.10536 13.707 5.2929C13.8945 5.48043 13.9999 5.73479 13.9999 6C13.9999 6.26522 13.8945 6.51957 13.707 6.70711C13.5194 6.89464 13.2651 7 12.9999 7H2.99988L6.28988 10.29C6.47818 10.477 6.5845 10.7311 6.58543 10.9965C6.58637 11.2618 6.48186 11.5167 6.29488 11.705C6.1079 11.8933 5.85378 11.9996 5.58841 12.0006C5.32305 12.0015 5.06818 11.897 4.87988 11.71L0.589878 7.41C0.214291 7.03665 0.00211048 6.52958 -0.00012207 6Z" fill="#30473F"/>
</svg>
