<svg width="90" height="90" viewBox="0 0 90 90" fill="none" xmlns="http://www.w3.org/2000/svg">
<rect width="90" height="90" rx="45" fill="#BF4C0C" fill-opacity="0.2"/>
<path fill-rule="evenodd" clip-rule="evenodd" d="M41.5666 42.6716C42.1161 42.6167 42.6061 43.0176 42.6611 43.5672L43.3277 50.2339C43.3828 50.7834 42.9817 51.2735 42.4323 51.3284C41.8827 51.3834 41.3927 50.9824 41.3377 50.4328L40.6711 43.7662C40.6161 43.2167 41.017 42.7266 41.5666 42.6716Z" fill="#BF4C0C"/>
<path fill-rule="evenodd" clip-rule="evenodd" d="M48.4322 42.6716C48.9817 42.7266 49.3826 43.2167 49.3277 43.7662L48.661 50.4328C48.6061 50.9824 48.1161 51.3834 47.5665 51.3284C47.017 51.2735 46.6161 50.7834 46.671 50.2339L47.3377 43.5672C47.3926 43.0176 47.8826 42.6167 48.4322 42.6716Z" fill="#BF4C0C"/>
<path fill-rule="evenodd" clip-rule="evenodd" d="M42.4981 30.6667H47.0067C47.2953 30.6665 47.5466 30.6663 47.7839 30.7042C48.7217 30.854 49.5331 31.4389 49.9717 32.2811C50.0827 32.4943 50.1621 32.7328 50.2531 33.0066L50.4019 33.4531C50.4271 33.5287 50.4343 33.5501 50.4405 33.567C50.6739 34.2124 51.2793 34.6488 51.9655 34.6662C51.9835 34.6666 52.0057 34.6667 52.0857 34.6667H56.0857C56.6381 34.6667 57.0857 35.1144 57.0857 35.6667C57.0857 36.219 56.6381 36.6667 56.0857 36.6667H33.4189C32.8667 36.6667 32.4189 36.219 32.4189 35.6667C32.4189 35.1144 32.8667 34.6667 33.4189 34.6667H37.4191C37.4991 34.6667 37.5212 34.6666 37.5393 34.6662C38.2255 34.6488 38.8308 34.2125 39.0643 33.567C39.0705 33.55 39.0775 33.5291 39.1028 33.4531L39.2516 33.0066C39.3427 32.7328 39.4221 32.4943 39.5331 32.2811C39.9717 31.4389 40.7831 30.854 41.7209 30.7042C41.9582 30.6663 42.2096 30.6665 42.4981 30.6667ZM40.7631 34.6667C40.8318 34.532 40.8927 34.392 40.9451 34.2473C40.9609 34.2033 40.9765 34.1566 40.9966 34.0964L41.1297 33.6972C41.2512 33.3325 41.2792 33.2582 41.307 33.2048C41.4532 32.9241 41.7237 32.7291 42.0362 32.6792C42.0956 32.6697 42.175 32.6667 42.5594 32.6667H46.9454C47.3298 32.6667 47.4091 32.6697 47.4686 32.6792C47.7811 32.7291 48.0517 32.9241 48.1978 33.2048C48.2255 33.2582 48.2535 33.3325 48.3751 33.6972L48.5081 34.0962L48.5598 34.2473C48.6121 34.3921 48.673 34.532 48.7417 34.6667H40.7631Z" fill="#BF4C0C"/>
<path fill-rule="evenodd" clip-rule="evenodd" d="M35.8222 39.3356C36.3732 39.2988 36.8498 39.7158 36.8865 40.2668L37.4998 49.4656C37.6196 51.2628 37.7049 52.5132 37.8924 53.454C38.0742 54.3667 38.3279 54.8498 38.6925 55.1908C39.057 55.5318 39.5559 55.753 40.4786 55.8736C41.4298 55.998 42.6832 56 44.4842 56H45.5154C47.3165 56 48.5698 55.998 49.521 55.8736C50.4437 55.753 50.9426 55.5318 51.3072 55.1908C51.6717 54.8498 51.9256 54.3667 52.1073 53.454C52.2948 52.5132 52.3801 51.2628 52.5 49.4656L53.1132 40.2668C53.1498 39.7158 53.6264 39.2988 54.1774 39.3356C54.7285 39.3723 55.1454 39.8488 55.1088 40.3999L54.4908 49.6688C54.3768 51.3792 54.2848 52.7607 54.0688 53.8448C53.8442 54.9719 53.4624 55.9134 52.6736 56.6512C51.8848 57.3892 50.92 57.7076 49.7805 57.8567C48.6844 58 47.2998 58 45.5857 58H44.414C42.6998 58 41.3152 58 40.2192 57.8567C39.0796 57.7076 38.1149 57.3892 37.3261 56.6512C36.5373 55.9134 36.1554 54.9719 35.9309 53.8448C35.7149 52.7607 35.6228 51.3792 35.5089 49.6688L34.8909 40.3999C34.8542 39.8488 35.2711 39.3723 35.8222 39.3356Z" fill="#BF4C0C"/>
</svg>
