<svg width="30" height="30" viewBox="0 0 30 30" fill="none" xmlns="http://www.w3.org/2000/svg">
<rect width="30" height="30" rx="10" fill="#E4F3EE"/>
<path fill-rule="evenodd" clip-rule="evenodd" d="M12.8544 13.5448C13.1978 13.5104 13.5041 13.761 13.5384 14.1045L13.9551 18.2712C13.9895 18.6146 13.7388 18.9209 13.3954 18.9553C13.0519 18.9896 12.7457 18.739 12.7113 18.3955L12.2947 14.2289C12.2603 13.8854 12.5109 13.5791 12.8544 13.5448Z" fill="#87948F"/>
<path fill-rule="evenodd" clip-rule="evenodd" d="M17.1454 13.5448C17.4888 13.5791 17.7394 13.8854 17.7051 14.2289L17.2884 18.3955C17.2541 18.739 16.9478 18.9896 16.6043 18.9553C16.2609 18.9209 16.0103 18.6146 16.0447 18.2712L16.4613 14.1045C16.4957 13.761 16.8019 13.5104 17.1454 13.5448Z" fill="#87948F"/>
<path fill-rule="evenodd" clip-rule="evenodd" d="M13.4367 6.04167H16.2546C16.4349 6.04156 16.592 6.04146 16.7403 6.06515C17.3264 6.15873 17.8336 6.52428 18.1077 7.05069C18.1771 7.18393 18.2267 7.333 18.2836 7.50411L18.3766 7.78319C18.3923 7.83043 18.3968 7.84381 18.4007 7.85434C18.5466 8.25776 18.9249 8.53048 19.3538 8.54136C19.3651 8.54164 19.3789 8.54169 19.4289 8.54169H21.9289C22.2742 8.54169 22.5539 8.82151 22.5539 9.16669C22.5539 9.51186 22.2742 9.79169 21.9289 9.79169H7.76221C7.41703 9.79169 7.13721 9.51186 7.13721 9.16669C7.13721 8.82151 7.41703 8.54169 7.76221 8.54169H10.2623C10.3123 8.54169 10.3261 8.54164 10.3374 8.54136C10.7663 8.53048 11.1446 8.25779 11.2906 7.85436C11.2944 7.84375 11.2988 7.83066 11.3146 7.78319L11.4076 7.50412C11.4646 7.33302 11.5141 7.18393 11.5835 7.05069C11.8576 6.52428 12.3648 6.15873 12.9509 6.06515C13.0992 6.04146 13.2563 6.04156 13.4367 6.04167ZM12.3523 8.54169C12.3953 8.45751 12.4333 8.37002 12.466 8.27956C12.476 8.25208 12.4857 8.22284 12.4982 8.18527L12.5814 7.93576C12.6574 7.70783 12.6749 7.66135 12.6922 7.62802C12.7836 7.45255 12.9526 7.33071 13.148 7.29951C13.1851 7.29358 13.2347 7.29169 13.475 7.29169H16.2162C16.4565 7.29169 16.5061 7.29358 16.5432 7.29951C16.7386 7.33071 16.9077 7.45255 16.999 7.62802C17.0163 7.66135 17.0338 7.70782 17.1098 7.93576L17.1929 8.18512L17.2252 8.27957C17.2579 8.37003 17.296 8.45751 17.3389 8.54169H12.3523Z" fill="#87948F"/>
<path fill-rule="evenodd" clip-rule="evenodd" d="M9.26411 11.4597C9.60852 11.4368 9.90634 11.6973 9.92931 12.0418L10.3126 17.791C10.3875 18.9143 10.4408 19.6958 10.558 20.2838C10.6716 20.8542 10.8302 21.1561 11.058 21.3693C11.2859 21.5823 11.5977 21.7206 12.1744 21.796C12.7689 21.8738 13.5522 21.875 14.6779 21.875H15.3224C16.448 21.875 17.2314 21.8738 17.8259 21.796C18.4025 21.7206 18.7144 21.5823 18.9422 21.3693C19.17 21.1561 19.3287 20.8542 19.4423 20.2838C19.5595 19.6958 19.6128 18.9143 19.6877 17.791L20.071 12.0418C20.0939 11.6973 20.3917 11.4368 20.7361 11.4597C21.0805 11.4827 21.3411 11.7805 21.3182 12.1249L20.932 17.918C20.8607 18.987 20.8032 19.8504 20.6682 20.528C20.5279 21.2324 20.2892 21.8208 19.7962 22.282C19.3032 22.7433 18.7002 22.9423 17.988 23.0354C17.303 23.125 16.4376 23.125 15.3663 23.125H14.634C13.5626 23.125 12.6973 23.125 12.0122 23.0354C11.3 22.9423 10.6971 22.7433 10.2041 22.282C9.71106 21.8208 9.47238 21.2324 9.33206 20.528C9.19707 19.8504 9.13952 18.987 9.06828 17.918L8.68207 12.1249C8.65911 11.7805 8.9197 11.4827 9.26411 11.4597Z" fill="#87948F"/>
</svg>
