<svg width="30" height="30" viewBox="0 0 30 30" fill="none" xmlns="http://www.w3.org/2000/svg">
<rect width="30" height="30" rx="10" fill="#E4F3EE"/>
<g clip-path="url(#clip0_182_6153)">
<path d="M22.2353 7.76533C21.7821 7.3128 21.1678 7.05862 20.5273 7.05862C19.8869 7.05862 19.2726 7.3128 18.8193 7.76533L7.97668 18.608C7.66618 18.9168 7.41998 19.284 7.25234 19.6885C7.0847 20.093 6.99893 20.5268 7.00001 20.9647V22.3333C7.00001 22.5101 7.07025 22.6797 7.19527 22.8047C7.3203 22.9298 7.48987 23 7.66668 23H9.03534C9.47319 23.0012 9.90692 22.9156 10.3114 22.7481C10.716 22.5805 11.0832 22.3344 11.392 22.024L22.2353 11.1807C22.6877 10.7275 22.9417 10.1133 22.9417 9.473C22.9417 8.83269 22.6877 8.21854 22.2353 7.76533ZM10.4493 21.0813C10.0733 21.4548 9.56532 21.6651 9.03534 21.6667H8.33334V20.9647C8.33267 20.7019 8.38411 20.4417 8.4847 20.199C8.58529 19.9563 8.73302 19.7359 8.91934 19.5507L17.148 11.322L18.6813 12.8553L10.4493 21.0813ZM21.292 10.238L19.6213 11.9093L18.088 10.3793L19.7593 8.708C19.86 8.60754 19.9795 8.52789 20.111 8.47361C20.2424 8.41932 20.3833 8.39146 20.5255 8.39161C20.6678 8.39177 20.8086 8.41994 20.9399 8.47451C21.0712 8.52908 21.1905 8.60899 21.291 8.70967C21.3915 8.81035 21.4711 8.92983 21.5254 9.06129C21.5797 9.19275 21.6076 9.33362 21.6074 9.47584C21.6072 9.61807 21.5791 9.75888 21.5245 9.89022C21.4699 10.0216 21.39 10.1409 21.2893 10.2413L21.292 10.238Z" fill="#87948F"/>
</g>
<defs>
<clipPath id="clip0_182_6153">
<rect width="16" height="16" fill="white" transform="translate(7 7)"/>
</clipPath>
</defs>
</svg>
