<svg width="130" height="142" viewBox="0 0 130 142" fill="none" xmlns="http://www.w3.org/2000/svg">
    <path d="M63.7755 124.383C96.7558 124.383 123.493 97.6453 123.493 64.5472C123.493 31.4491 96.638 4.71155 63.7755 4.71155C30.7952 4.71155 4.05762 31.4491 4.05762 64.5472C4.05762 97.6453 30.7952 124.383 63.7755 124.383Z" fill="white" stroke="#E0E0E0" stroke-width="2" stroke-miterlimit="10"/>
    <path d="M119.135 25.4417C121.802 25.4417 123.964 23.2796 123.964 20.6125C123.964 17.9453 121.802 15.7832 119.135 15.7832C116.468 15.7832 114.306 17.9453 114.306 20.6125C114.306 23.2796 116.468 25.4417 119.135 25.4417Z" fill="#E0E0E0"/>
    <path d="M126.202 6.59605C128.023 6.59605 129.5 5.11948 129.5 3.29803C129.5 1.47658 128.023 0 126.202 0C124.38 0 122.904 1.47658 122.904 3.29803C122.904 5.11948 124.38 6.59605 126.202 6.59605Z" fill="#E0E0E0"/>
    <path d="M6.76629 25.324C8.58774 25.324 10.0643 23.8474 10.0643 22.0259C10.0643 20.2045 8.58774 18.7279 6.76629 18.7279C4.94484 18.7279 3.46826 20.2045 3.46826 22.0259C3.46826 23.8474 4.94484 25.324 6.76629 25.324Z" fill="#E0E0E0"/>
    <path d="M6.62491 116.25C10.0076 116.25 12.7498 113.508 12.7498 110.125C12.7498 106.742 10.0076 104 6.62491 104C3.24221 104 0.5 106.742 0.5 110.125C0.5 113.508 3.24221 116.25 6.62491 116.25Z" fill="#E0E0E0"/>
    <path d="M107.687 105.12C96.7746 116.97 81.1402 124.383 63.775 124.383C49.9162 124.383 37.1597 119.662 27.0264 111.731V14.0746C27.0264 10.8443 29.6275 8.20825 32.8724 8.20825H90.8696L107.687 25.0838V105.12Z" fill="white" stroke="#E0E0E0" stroke-width="2" stroke-miterlimit="10"/>
    <path d="M51.0926 104.186H42.6468C42.3317 104.186 42.0796 103.369 42.0796 102.39C42.0796 101.41 42.3317 100.593 42.6468 100.593H51.0926C51.4078 100.593 51.6599 101.41 51.6599 102.39C51.6599 103.533 51.4078 104.186 51.0926 104.186Z" fill="#E0E0E0"/>
    <path d="M69.6779 28.7409H43.2222C42.6069 28.7409 42.0796 27.9119 42.0796 26.9446C42.0796 25.9774 42.6069 25.1483 43.2222 25.1483H69.6779C70.2932 25.1483 70.8205 25.9774 70.8205 26.9446C70.8205 27.9119 70.2932 28.7409 69.6779 28.7409Z" fill="#E0E0E0"/>
    <path d="M49.7489 37.1237H42.8525C42.4363 37.1237 42.0796 36.2947 42.0796 35.3274C42.0796 34.3602 42.4363 33.5311 42.8525 33.5311H49.6895C50.1056 33.5311 50.4624 34.3602 50.4624 35.3274C50.4624 36.2947 50.1056 37.1237 49.7489 37.1237Z" fill="#E0E0E0"/>
    <path d="M91.4945 83.8276H58.703H55.0889H44.1583C43.7176 83.8276 43.2769 84.5761 43.2769 85.6239C43.2769 86.5221 43.6295 87.4203 44.1583 87.4203H55.0889H58.703H91.4945C91.9352 87.4203 92.376 86.6718 92.376 85.6239C92.2878 84.5761 91.9352 83.8276 91.4945 83.8276Z" fill="#E0E0E0"/>
    <path d="M91.4929 74.2474H79.3064H75.1559H44.1599C43.7184 74.2474 43.2769 74.9959 43.2769 76.0437C43.2769 76.9419 43.6301 77.8401 44.1599 77.8401H75.1559H79.3064H91.4929C91.9344 77.8401 92.376 77.0916 92.376 76.0437C92.2876 74.9959 91.9344 74.2474 91.4929 74.2474Z" fill="#E0E0E0"/>
    <path d="M92.7508 65.8646H89.5067H86.2625H44.178C43.7274 65.8646 43.2769 66.6131 43.2769 67.6609C43.2769 68.5591 43.6373 69.4572 44.178 69.4572H86.2625H89.8671H92.6607C93.1113 69.4572 93.5619 68.7088 93.5619 67.6609C93.652 66.7628 93.2014 65.8646 92.7508 65.8646Z" fill="#E0E0E0"/>
    <path d="M92.6801 56.2844H82.2277H79.6369H44.1702C43.7235 56.2844 43.2769 57.0329 43.2769 58.0807C43.2769 58.9789 43.6342 59.877 44.1702 59.877H79.6369H82.2277H92.5908C93.2161 59.877 93.5735 59.1286 93.5735 58.0807C93.5735 57.1826 93.2161 56.2844 92.6801 56.2844Z" fill="#E0E0E0"/>
    <path d="M90.8696 8.91162V19.7872C90.8696 23.1009 93.5559 25.7872 96.8696 25.7872H107.687" fill="white"/>
    <path d="M90.8696 8.91162V19.7872C90.8696 23.1009 93.5559 25.7872 96.8696 25.7872H107.687" stroke="#E0E0E0" stroke-width="2" stroke-miterlimit="10"/>
    <path d="M86.4886 125.2C86.0961 126.868 85.5073 128.634 84.8204 130.106C82.956 133.737 80.0121 136.583 76.3814 138.447C72.6526 140.312 68.2368 141.097 63.8211 140.115C53.4195 137.957 46.7468 127.751 48.9056 117.35C51.0644 106.948 61.1716 100.177 71.5731 102.434C75.302 103.219 78.5402 105.084 81.2878 107.635C85.8998 112.247 87.8624 118.92 86.4886 125.2Z" fill="#E0E0E0" stroke="#BF4C0C" stroke-width="2" stroke-miterlimit="10"/>
    <path d="M74.9389 124.262L71.9516 121.275L74.9389 118.288C76.0408 117.186 76.1773 115.32 74.9389 114.082C73.8369 112.98 71.9718 112.844 70.7334 114.082L67.7461 117.069L64.7588 114.082C63.6569 112.98 61.7917 112.844 60.5533 114.082C59.9735 114.662 59.6447 115.402 59.6447 116.185C59.6447 116.967 59.9735 117.708 60.5533 118.288L63.5406 121.275L60.5533 124.262C59.4514 125.364 59.3149 127.229 60.5533 128.468C61.6552 129.569 63.5204 129.706 64.7588 128.468L67.7461 125.48L70.7334 128.468C71.8353 129.569 73.7004 129.706 74.9389 128.468C76.1773 127.229 76.0408 125.364 74.9389 124.262Z" fill="#E0E0E0" stroke="#BF4C0C" stroke-width="2"/>
</svg>
