<svg width="36" height="37" viewBox="0 0 36 37" fill="none" xmlns="http://www.w3.org/2000/svg">
<rect y="0.5" width="36" height="36" rx="13" fill="#E4F3EE"/>
<path d="M23.5915 18.4457L23.5914 18.4457C22.1823 17.2234 20.3767 16.5351 18.5072 16.5075L18.5072 16.5075H18.5043H18.5043H18.5042H18.5042H18.5042H18.5042H18.5042H18.5042H18.5041H18.5041H18.5041H18.5041H18.5041H18.5041H18.504H18.504H18.504H18.504H18.504H18.504H18.5039H18.5039H18.5039H18.5039H18.5039H18.5039H18.5038H18.5038H18.5038H18.5038H18.5038H18.5038H18.5037H18.5037H18.5037H18.5037H18.5037H18.5037H18.5036H18.5036H18.5036H18.5036H18.5036H18.5036H18.5035H18.5035H18.5035H18.5035H18.5035H18.5035H18.5034H18.5034H18.5034H18.5034H18.5034H18.5034H18.5033H18.5033H18.5033H18.5033H18.5033H18.5033H18.5032H18.5032H18.5032H18.5032H18.5032H18.5032H18.5031H18.5031H18.5031H18.5031H18.5031H18.5031H18.503H18.503H18.503H18.503H18.503H18.503H18.5029H18.5029H18.5029H18.5029H18.5029H18.5029H18.5028H18.5028H18.5028H18.5028H18.5028H18.5028H18.5027H18.5027H18.5027H18.5027H18.5027H18.5027H18.5026H18.5026H18.5026H18.5026H18.5026H18.5026H18.5025H18.5025H18.5025H18.5025H18.5025H18.5025H18.5024H18.5024H18.5024H18.5024H18.5024H18.5024H18.5023H18.5023H18.5023H18.5023H18.5023H18.5023H18.5022H18.5022H18.5022H18.5022H18.5022H18.5022H18.5021H18.5021H18.5021H18.5021H18.5021H18.5021H18.502H18.502H18.502H18.502H18.502H18.502H18.5019H18.5019H18.5019H18.5019H18.5019H18.5019H18.5018H18.5018H18.5018H18.5018H18.5018H18.5018H18.5017H18.5017H18.5017H18.5017H18.5017H18.5017H18.5016H18.5016H18.5016H18.5016H18.5016H18.5016H18.5015H18.5015H18.5015H18.5015H18.5015H18.5015H18.5014H18.5014H18.5014H18.5014H18.5014H18.5014H18.5013H18.5013H18.5013H18.5013H18.5013H18.5013H18.5012H18.5012H18.5012H18.5012H18.5012H18.5012H18.5011H18.5011H18.5011H18.5011H18.5011H18.5011H18.501H18.501H18.501H18.501H18.501H18.501H18.5009H18.5009H18.5009H18.5009H18.5009H18.5009H18.5008H18.5008H18.5008H18.5008H18.5008H18.5008H18.5007H18.5007H18.5007H18.5007H18.5007H18.5007H18.5006H18.5006H18.5006H18.5006H18.5006H18.5006H18.5005H18.5005H18.5005H18.5005H18.5005H18.5005H18.5004H18.5004H18.5004H18.5004H18.5004H18.5004H18.5003H18.5003H18.5003H18.5003H18.5003H18.5003H18.5002H18.5002H18.5002H18.5002H18.5002H18.5002H18.5001H18.5001H18.5001H18.5001H18.5001H18.5001H18.5H18.5H18.5H18.5H18.5H18.4999H18.4999H18.4999H18.4999H18.4999H18.4999H18.4998H18.4998H18.4998H18.4998H18.4998H18.4998H18.4997H18.4997H18.4997H18.4997H18.4997H18.4997H18.4996H18.4996H18.4996H18.4996H18.4996H18.4996H18.4995H18.4995H18.4995H18.4995H18.4995H18.4995H18.4994H18.4994H18.4994H18.4994H18.4994H18.4994H18.4993H18.4993H18.4993H18.4993H18.4993H18.4993H18.4992H18.4992H18.4992H18.4992H18.4992H18.4992H18.4991H18.4991H18.4991H18.4991H18.4991H18.4991H18.499H18.499H18.499H18.499H18.499H18.499H18.4989H18.4989H18.4989H18.4989H18.4989H18.4989H18.4988H18.4988H18.4988H18.4988H18.4988H18.4988H18.4987H18.4987H18.4987H18.4987H18.4987H18.4987H18.4986H18.4986H18.4986H18.4986H18.4986H18.4986H18.4985H18.4985H18.4985H18.4985H18.4985H18.4985H18.4984H18.4984H18.4984H18.4984H18.4984H18.4984H18.4983H18.4983H18.4983H18.4983H18.4983H18.4983H18.4982H18.4982H18.4982H18.4982H18.4982H18.4982H18.4981H18.4981H18.4981H18.4981H18.4981H18.4981H18.498H18.498H18.498H18.498H18.498H18.498H18.4979H18.4979H18.4979H18.4979H18.4979H18.4979H18.4978H18.4978H18.4978H18.4978H18.4978H18.4978H18.4977H18.4977H18.4977H18.4977H18.4977H18.4977H18.4976H18.4976H18.4976H18.4976H18.4976H18.4976H18.4975H18.4975H18.4975H18.4975H18.4975H18.4975H18.4974H18.4974H18.4974H18.4974H18.4974H18.4974H18.4973H18.4973H18.4973H18.4973H18.4973H18.4973H18.4972H18.4972H18.4972H18.4972H18.4972H18.4972H18.4971H18.4971H18.4971H18.4971H18.4971H18.4971H18.497H18.497H18.497H18.497H18.497H18.497H18.4969H18.4969H18.4969H18.4969H18.4969H18.4969H18.4968H18.4968H18.4968H18.4968H18.4968H18.4968H18.4967H18.4967H18.4967H18.4967H18.4967H18.4967H18.4966H18.4966H18.4966H18.4966H18.4966H18.4966H18.4965H18.4965H18.4965H18.4965H18.4965H18.4965H18.4964H18.4964H18.4964H18.4964H18.4964H18.4964H18.4963H18.4963H18.4963H18.4963H18.4963H18.4963H18.4962H18.4962H18.4962H18.4962H18.4962H18.4962H18.4961H18.4961H18.4961H18.4961H18.4961H18.4961H18.496H18.496H18.496H18.496H18.496H18.496H18.4959H18.4959H18.4959H18.4959H18.4959H18.4959H18.4958H18.4958H18.4958H18.4958H18.4958H18.4958H18.4957H18.4957V16.5075L18.4928 16.5075C16.6233 16.5351 14.8177 17.2234 13.4086 18.4457L13.4085 18.4457C12.0119 19.6574 11.0947 21.3114 10.8261 23.1046C10.6946 23.9823 11.0652 24.8074 11.809 25.3054L11.809 25.3055C13.7606 26.612 16.6425 27.2 18.5003 27.2C20.3581 27.2 23.24 26.612 25.191 25.306L25.191 25.306C25.9348 24.808 26.3054 23.9829 26.1739 23.1052C25.9059 21.3114 24.988 19.6574 23.5915 18.4457ZM24.6467 24.5116L24.6466 24.5117C22.7591 25.7755 19.9341 26.2407 18.5003 26.2407C17.0664 26.2407 14.2414 25.7755 12.354 24.5117L12.3539 24.5116C11.9208 24.2218 11.7114 23.7505 11.7866 23.2453C12.2709 20.0065 15.1554 17.52 18.5003 17.4668C21.8452 17.52 24.7292 20.0066 25.214 23.2455L25.214 23.2455C25.2896 23.7504 25.0799 24.2217 24.6467 24.5116ZM18.5003 8.8C16.3629 8.8 14.6172 10.5055 14.6172 12.6102C14.6172 14.7149 16.3629 16.4204 18.5003 16.4204C20.6377 16.4204 22.3834 14.7149 22.3834 12.6102C22.3834 10.5055 20.6377 8.8 18.5003 8.8ZM18.5003 15.4611C16.8906 15.4611 15.5877 14.1783 15.5877 12.6102C15.5877 11.0421 16.8906 9.75928 18.5003 9.75928C20.1099 9.75928 21.4128 11.0421 21.4128 12.6102C21.4128 14.1783 20.1099 15.4611 18.5003 15.4611Z" fill="#87948F" stroke="#87948F" stroke-width="0.4"/>
</svg>
